<svg width="22" height="22" viewBox="0 0 22 22" fill="none" xmlns="http://www.w3.org/2000/svg">
<path fill-rule="evenodd" clip-rule="evenodd" d="M11 0.166687C5.01999 0.166687 0.166656 5.02002 0.166656 11C0.166656 16.98 5.01999 21.8334 11 21.8334C16.98 21.8334 21.8333 16.98 21.8333 11C21.8333 5.02002 16.98 0.166687 11 0.166687ZM15.5933 6.40669C14.3258 5.13919 12.6683 4.50002 11 4.50002V11L6.40666 15.5934C8.94166 18.1284 13.0583 18.1284 15.6042 15.5934C18.1392 13.0584 18.1392 8.94169 15.5933 6.40669ZM2.33332 11C2.33332 15.7884 6.21166 19.6667 11 19.6667C15.7883 19.6667 19.6667 15.7884 19.6667 11C19.6667 6.21169 15.7883 2.33335 11 2.33335C6.21166 2.33335 2.33332 6.21169 2.33332 11Z" fill="white"/>
</svg>
